<?xml version="1.0" standalone="no"?>
<!DOCTYPE svg PUBLIC "-//W3C//DTD SVG 20010904//EN"
 "http://www.w3.org/TR/2001/REC-SVG-20010904/DTD/svg10.dtd">
<svg version="1.0" xmlns="http://www.w3.org/2000/svg"
 width="1500.000000pt" height="1500.000000pt" viewBox="0 0 1500.000000 1500.000000"
 preserveAspectRatio="xMidYMid meet">
<metadata>
Created by potrace 1.11, written by Peter Selinger 2001-2013
</metadata>
<g transform="translate(0.000000,1500.000000) scale(0.100000,-0.100000)"
fill="#000000" stroke="none">
<path d="M7198 14995 c-1 -1 -66 -6 -143 -10 -77 -3 -153 -8 -170 -10 -16 -2
-61 -6 -100 -10 -99 -9 -155 -15 -195 -20 -19 -2 -57 -7 -85 -11 -27 -3 -57
-8 -66 -9 -9 -2 -40 -6 -69 -10 -29 -4 -62 -9 -74 -11 -12 -2 -61 -11 -111
-19 -49 -9 -144 -27 -210 -41 -66 -14 -131 -28 -145 -30 -14 -3 -52 -12 -85
-21 -33 -8 -68 -17 -78 -18 -9 -2 -83 -22 -165 -45 -365 -101 -676 -212 -1037
-370 -117 -51 -469 -224 -530 -260 -16 -9 -55 -31 -85 -47 -232 -126 -587
-357 -856 -559 -93 -70 -171 -130 -174 -133 -3 -3 -38 -33 -79 -66 -300 -242
-727 -662 -961 -945 -34 -41 -72 -86 -84 -100 -147 -175 -431 -569 -549 -762
-23 -38 -62 -102 -86 -141 -24 -40 -65 -110 -91 -157 -26 -47 -58 -103 -70
-125 -82 -144 -262 -527 -349 -740 -5 -11 -13 -31 -19 -45 -31 -74 -92 -240
-92 -252 0 -8 -4 -18 -9 -23 -7 -9 -61 -172 -132 -400 -25 -81 -95 -352 -114
-445 -9 -41 -18 -84 -21 -95 -3 -17 -24 -121 -39 -200 -10 -48 -45 -263 -49
-295 -2 -19 -9 -71 -15 -115 -16 -129 -21 -166 -26 -235 -3 -36 -7 -83 -10
-105 -20 -166 -27 -805 -12 -1059 10 -172 30 -386 48 -511 5 -38 11 -86 14
-106 5 -40 34 -222 40 -254 2 -11 13 -67 24 -125 11 -58 22 -114 25 -125 2
-11 14 -63 25 -115 40 -182 133 -506 206 -720 81 -239 153 -430 166 -445 5 -5
9 -15 9 -22 0 -12 11 -37 86 -201 19 -40 34 -75 34 -78 0 -12 191 -387 259
-508 267 -475 602 -945 965 -1351 94 -105 427 -440 537 -541 104 -94 199 -178
214 -186 7 -4 28 -22 46 -39 19 -18 50 -44 69 -58 19 -14 40 -31 47 -37 7 -7
65 -52 130 -100 65 -49 120 -91 123 -94 3 -3 19 -14 35 -26 103 -71 199 -137
260 -177 39 -26 75 -50 81 -54 5 -4 21 -14 35 -22 13 -8 69 -43 124 -76 55
-34 163 -97 240 -139 77 -42 149 -82 160 -88 142 -80 675 -323 775 -353 14 -4
39 -13 55 -20 32 -14 64 -26 80 -31 6 -2 84 -29 175 -60 307 -105 724 -215
1005 -264 28 -5 88 -16 135 -24 47 -8 103 -17 125 -21 22 -3 51 -7 65 -10 14
-2 68 -9 120 -15 52 -6 109 -13 125 -15 17 -2 62 -7 100 -10 39 -3 87 -8 109
-10 242 -26 1019 -26 1241 0 17 2 62 6 101 10 39 3 80 7 90 9 11 2 51 7 89 11
39 4 77 8 85 10 8 2 38 6 65 9 28 4 61 9 75 11 14 2 54 9 90 14 36 6 74 13 85
15 11 2 40 7 65 12 25 4 47 8 50 9 3 1 25 5 50 9 254 44 789 194 1085 304 44
16 114 42 155 57 78 29 427 177 470 200 14 8 89 45 167 84 132 65 167 83 313
164 158 87 277 161 500 308 149 99 454 319 470 338 3 3 39 33 80 65 194 154
363 308 600 545 195 196 228 230 350 371 269 307 606 772 786 1083 21 37 49
85 61 105 12 20 29 51 37 67 8 17 29 54 46 83 16 29 61 115 100 190 296 584
517 1209 646 1827 13 64 45 229 54 280 5 33 12 69 14 80 5 27 17 112 22 154 2
19 5 48 8 65 2 17 8 54 11 81 4 28 8 61 10 75 2 14 7 61 10 105 4 44 8 96 10
115 20 203 27 848 12 1060 -22 295 -26 334 -48 505 -6 44 -13 96 -15 115 -15
115 -80 475 -88 488 -2 4 -7 27 -11 50 -8 58 -77 332 -115 462 -17 58 -33 114
-36 125 -10 48 -175 515 -207 587 -8 18 -31 74 -52 123 -70 168 -222 493 -265
565 -5 8 -39 71 -76 140 -123 229 -392 654 -496 785 -5 6 -48 62 -96 126 -83
110 -199 258 -212 269 -3 3 -25 30 -50 60 -169 207 -547 591 -785 797 -33 28
-71 61 -85 73 -14 12 -43 36 -64 53 -22 18 -55 46 -75 63 -32 27 -214 167
-282 217 -868 631 -1838 1066 -2862 1282 -181 38 -426 81 -512 90 -11 2 -56 7
-100 14 -44 6 -107 13 -140 16 -33 4 -76 8 -95 10 -19 2 -69 6 -110 10 -41 3
-100 8 -130 11 -62 5 -776 14 -782 9z"/>
</g>
</svg>
